<?xml version="1.0" encoding="iso-8859-1"?>
<!-- Generator: Adobe Illustrator 18.0.0, SVG Export Plug-In . SVG Version: 6.00 Build 0)  -->
<!DOCTYPE svg PUBLIC "-//W3C//DTD SVG 1.1//EN" "http://www.w3.org/Graphics/SVG/1.1/DTD/svg11.dtd">
<svg version="1.1" id="Capa_1" xmlns="http://www.w3.org/2000/svg" xmlns:xlink="http://www.w3.org/1999/xlink" x="0px" y="0px"
	 viewBox="0 0 367.633 367.633" style="enable-background:new 0 0 367.633 367.633;" xml:space="preserve">
<path d="M266.003,0H101.63C86.293,0,73.816,12.476,73.816,27.812v312.01c0,15.335,12.477,27.812,27.813,27.812h164.373
	c15.337,0,27.814-12.477,27.814-27.812V27.812C293.816,12.476,281.34,0,266.003,0z M194.844,338.736
	c0,2.175-1.763,3.938-3.938,3.938h-14.18c-2.175,0-3.938-1.763-3.938-3.938v-12.604c0-1.279,0.622-2.481,1.669-3.219l7.09-4.993
	c1.362-0.959,3.175-0.959,4.537,0l7.09,4.993c1.047,0.737,1.669,1.939,1.669,3.219V338.736z M260.732,300.516H106.9V42.299h153.832
	V300.516z"/>
<g>
</g>
<g>
</g>
<g>
</g>
<g>
</g>
<g>
</g>
<g>
</g>
<g>
</g>
<g>
</g>
<g>
</g>
<g>
</g>
<g>
</g>
<g>
</g>
<g>
</g>
<g>
</g>
<g>
</g>
</svg>
